<svg xmlns="http://www.w3.org/2000/svg" xmlns:xlink="http://www.w3.org/1999/xlink" width="32" height="32" viewBox="0 0 32 32"><defs><clipPath id="b"><rect width="32" height="32"/></clipPath></defs><g id="a" clip-path="url(#b)"><path d="M151.319,107.44a15,15,0,0,0-4.741,29.234c.75.137,1.024-.325,1.024-.723,0-.356-.013-1.3-.02-2.552-4.172.907-5.053-2.01-5.053-2.01a3.973,3.973,0,0,0-1.666-2.194c-1.362-.931.1-.912.1-.912a3.149,3.149,0,0,1,2.3,1.545,3.194,3.194,0,0,0,4.366,1.247,3.206,3.206,0,0,1,.952-2.006c-3.331-.378-6.833-1.665-6.833-7.414a5.8,5.8,0,0,1,1.544-4.025,5.389,5.389,0,0,1,.147-3.97s1.259-.4,4.124,1.538a14.225,14.225,0,0,1,7.51,0c2.864-1.941,4.121-1.538,4.121-1.538a5.39,5.39,0,0,1,.15,3.97,5.789,5.789,0,0,1,1.541,4.025c0,5.763-3.507,7.031-6.849,7.4a3.581,3.581,0,0,1,1.018,2.778c0,2.006-.018,3.624-.018,4.115,0,.4.271.867,1.031.721a15,15,0,0,0-4.752-29.232Z" transform="translate(-135.32 -106.44)" fill-rule="evenodd"/></g></svg>