<svg xmlns="http://www.w3.org/2000/svg" xmlns:xlink="http://www.w3.org/1999/xlink" width="20" height="20" viewBox="0 0 20 20"><defs><clipPath id="b"><rect width="20" height="20"/></clipPath></defs><g id="a" clip-path="url(#b)"><path d="M-2010-40a10.011,10.011,0,0,1-10-10,10.011,10.011,0,0,1,10-10,10.011,10.011,0,0,1,10,10A10.011,10.011,0,0,1-2010-40Zm0-8.585h0l3.534,3.534,1.415-1.415L-2008.585-50l3.535-3.535-1.415-1.415L-2010-51.415l-3.535-3.535-1.415,1.415,3.535,3.535-3.535,3.535,1.415,1.415,3.534-3.534Z" transform="translate(2020 60)"/></g></svg>