<svg xmlns="http://www.w3.org/2000/svg" xmlns:xlink="http://www.w3.org/1999/xlink" width="32" height="32" viewBox="0 0 32 32"><defs><clipPath id="b"><rect width="32" height="32"/></clipPath></defs><g id="a" clip-path="url(#b)"><path d="M-2055-210a14.9,14.9,0,0,1-10.607-4.393A14.9,14.9,0,0,1-2070-225a14.9,14.9,0,0,1,4.394-10.607A14.9,14.9,0,0,1-2055-240a14.9,14.9,0,0,1,10.606,4.393A14.9,14.9,0,0,1-2040-225a14.9,14.9,0,0,1-4.393,10.607A14.9,14.9,0,0,1-2055-210Zm-9.193-12.879h0l-2.121,2.121,4.95,4.95,2.121,2.121,2.121-2.121,13.435-13.435-2.121-2.121-13.435,13.435-4.95-4.95Z" transform="translate(2071 241)"/></g></svg>