<svg xmlns="http://www.w3.org/2000/svg" xmlns:xlink="http://www.w3.org/1999/xlink" width="20" height="20" viewBox="0 0 20 20"><defs><clipPath id="b"><rect width="20" height="20"/></clipPath></defs><g id="a" clip-path="url(#b)"><path d="M-2011-42a9.01,9.01,0,0,1-9-9,9.01,9.01,0,0,1,9-9,9.01,9.01,0,0,1,9,9A9.01,9.01,0,0,1-2011-42Zm0-7.585h0l3.534,3.534,1.415-1.415L-2009.585-51l3.535-3.535-1.415-1.415L-2011-52.415l-3.535-3.535-1.415,1.415,3.535,3.535-3.535,3.535,1.415,1.415,3.534-3.534Z" transform="translate(2021 61)"/></g></svg>