<svg xmlns="http://www.w3.org/2000/svg" xmlns:xlink="http://www.w3.org/1999/xlink" width="32" height="32" viewBox="0 0 32 32"><defs><clipPath id="b"><rect width="32" height="32"/></clipPath></defs><g id="a" clip-path="url(#b)"><path d="M-2047.029-160.03a14.9,14.9,0,0,1-10.607-4.393,14.9,14.9,0,0,1-4.393-10.607,14.9,14.9,0,0,1,4.393-10.606,14.9,14.9,0,0,1,10.607-4.393,14.9,14.9,0,0,1,10.606,4.393,14.9,14.9,0,0,1,4.393,10.606,14.9,14.9,0,0,1-4.393,10.607A14.9,14.9,0,0,1-2047.029-160.03Zm0-12.878h0l7.423,7.423,2.121-2.122-7.424-7.424,7.424-7.424-2.121-2.121-7.424,7.424-7.425-7.424-2.121,2.121,7.424,7.424-7.424,7.424,2.121,2.122,7.424-7.423Z" transform="translate(2063.03 191.03)"/></g></svg>