<svg xmlns="http://www.w3.org/2000/svg" xmlns:xlink="http://www.w3.org/1999/xlink" width="32" height="32" viewBox="0 0 32 32"><defs><clipPath id="b"><rect width="32" height="32"/></clipPath></defs><g id="a" clip-path="url(#b)"><path d="M-2049-418a14.9,14.9,0,0,1-10.606-4.393A14.9,14.9,0,0,1-2064-433a14.9,14.9,0,0,1,4.393-10.607A14.9,14.9,0,0,1-2049-448a14.9,14.9,0,0,1,10.607,4.393A14.9,14.9,0,0,1-2034-433a14.9,14.9,0,0,1-4.393,10.607A14.9,14.9,0,0,1-2049-418Zm0-7.622h0l-2.121,2.121,2.121,2.121,2.121-2.121-2.121-2.121ZM-2050.5-445h0v16h3v-16Z" transform="translate(2065 449)"/></g></svg>