<svg xmlns="http://www.w3.org/2000/svg" xmlns:xlink="http://www.w3.org/1999/xlink" width="20" height="20" viewBox="0 0 20 20"><defs><clipPath id="b"><rect width="20" height="20"/></clipPath></defs><g id="a" clip-path="url(#b)"><path d="M-2041-42a9.01,9.01,0,0,1-9-9,9.01,9.01,0,0,1,9-9,9.01,9.01,0,0,1,9,9A9.01,9.01,0,0,1-2041-42Zm0-4.414h0L-2042.414-45l1.414,1.414,1.415-1.414L-2041-46.414Zm-.031-8.464h0l1.414,1.414-2.414,2.414v3h2v-2.172l1.829-1.828,1.415-1.415-1.414-1.414-1.415-1.415-1.414-1.414-4.243,4.243,1.414,1.414,2.828-2.827Z" transform="translate(2051 61)"/></g></svg>