<svg xmlns="http://www.w3.org/2000/svg" xmlns:xlink="http://www.w3.org/1999/xlink" width="32" height="32" viewBox="0 0 32 32"><defs><clipPath id="b"><rect width="32" height="32"/></clipPath></defs><g id="a" clip-path="url(#b)"><path d="M-2049-290a14.9,14.9,0,0,1-10.606-4.393A14.9,14.9,0,0,1-2064-305a14.9,14.9,0,0,1,4.393-10.607A14.9,14.9,0,0,1-2049-320a14.9,14.9,0,0,1,10.607,4.393A14.9,14.9,0,0,1-2034-305a14.9,14.9,0,0,1-4.393,10.607A14.9,14.9,0,0,1-2049-290Zm0-7.621h0l-2.121,2.121,2.121,2.121,2.121-2.121-2.121-2.121Zm0-14.622h0l4.242,4.243-6.364,6.364,2.121,2.121,8.485-8.485-8.485-8.485-2.121,2.121-6.364,6.364,2.121,2.12,6.363-6.363Z" transform="translate(2065 321)"/></g></svg>